:SAMPLES-PER-SECOND 30
:FULLY-SPECIFIED
:DEGREES
569
root  57.2246 38.0655 14.7381 -178.502 -44.4859 176.391
RightUpLeg  4.37542 -18.0173 -24.3492
RightLeg  16.5611 -8.92294 -3.2152
RightFoot  -9.73626 -0.0804124 1.91506
RightToes  -8.73116e-010 0 -3.6325e-017
Spine  12.9691 -2.43126 -2.30455
Spine1  4.84519 -3.2795 1.75084
HEad  -13.5665 15.1208 -18.17
LeftShoulder1  -0.458564 4.63559 -34.3893
LeftArm  -0.999492 1.8786 -33.1327
LeftForeArm  65.8341 -79.1076 -79.3036
LeftHand  -0.0533638 -1.23996 1.06791
RightShoulder  -0.351392 -4.63172 24.1739
RightArm  -8.90045 -30.5829 20.9825
RightForeArm  130.841 62.3573 157.391
RightHand  -0.613833 9.00303 -5.3265
LeftUpLeg  -16.5816 22.6048 -2.06144
LeftLeg  25.7666 4.47077 2.6914
LeftFoot  -8.56828 -0.0241077 3.10946
LeftToes  -5.63919e-011 3.32596e-011 1.92487e-011
570
root  56.045 37.993 14.8183 -178.079 -47.1496 174.806
RightUpLeg  0.556138 -9.11951 -22.8579
RightLeg  23.4871 -2.65457 -1.46685
RightFoot  -10.5539 -0.0501522 -1.54608
RightToes  -8.73116e-010 0 -3.6325e-017
Spine  12.9402 -1.68053 -2.39811
Spine1  5.99704 -2.21862 -0.0531463
HEad  -12.3425 11.157 -16.799
LeftShoulder1  -0.190976 3.99467 -32.9458
LeftArm  -2.13132 2.6037 -34.6938
LeftForeArm  62.51 -78.9671 -75.3267
LeftHand  -0.0413925 -1.14408 0.851994
RightShoulder  -0.525597 -5.1358 25.4226
RightArm  -8.62126 -28.383 21.3409
RightForeArm  130.333 63.8799 155.894
RightHand  -0.523762 8.3324 -4.78885
LeftUpLeg  -14.7355 18.9997 -4.19327
LeftLeg  26.3727 5.78684 3.45796
LeftFoot  -10.2007 0.0168592 4.34446
LeftToes  -5.63919e-011 3.32596e-011 1.92487e-011
571
root  54.9439 37.9737 14.7874 -177.724 -49.6069 173.915
RightUpLeg  -3.14235 -6.76721 -21.0693
RightLeg  29.0088 3.02439 1.53778
RightFoot  -11.8064 -0.0723571 2.62553
RightToes  -8.73116e-010 0 -3.6325e-017
Spine  12.9382 -1.09298 -3.41294
Spine1  6.40559 -1.83823 -0.178329
HEad  -10.4141 8.90945 -15.3668
LeftShoulder1  -0.204862 4.01836 -33.3465
LeftArm  -3.36327 2.90042 -34.5382
LeftForeArm  59.8272 -78.8193 -72.4384
LeftHand  -0.0124117 -1.23748 0.338579
RightShoulder  -0.56931 -5.26705 25.5164
RightArm  -7.87754 -25.6434 22.7838
RightForeArm  129.736 65.7134 153.865
RightHand  -0.417056 7.6647 -4.06947
LeftUpLeg  -12.7758 17.7063 -5.49103
LeftLeg  26.1901 4.97693 3.02948
LeftFoot  -11.951 0.0961697 4.58836
LeftToes  -5.63919e-011 3.32596e-011 1.92487e-011
572
root  53.7831 38.1544 14.7254 -177.963 -52.75 174.157
RightUpLeg  -6.68775 -7.44185 -17.9391
RightLeg  32.8076 3.26002 1.99796
RightFoot  -12.0887 -0.0599325 3.40746
RightToes  -8.73116e-010 0 -3.6325e-017
Spine  13.2243 -1.27366 -3.83971
Spine1  5.75197 -2.36401 0.895349
HEad  -8.64206 7.50847 -14.4011
LeftShoulder1  -0.346737 4.35399 -34.4719
LeftArm  -4.77645 4.02165 -33.3578
LeftForeArm  61.3602 -78.9082 -74.0765
LeftHand  -0.0196854 -1.03526 0.461218
RightShoulder  -0.535846 -5.16987 25.2132
RightArm  -6.67212 -23.1591 24.1376
RightForeArm  128.259 67.2279 151.858
RightHand  -0.48023 8.2152 -4.46665
LeftUpLeg  -9.93581 16.2705 -5.83227
LeftLeg  24.1211 3.46361 1.99818
LeftFoot  -12.9134 0.143286 4.79304
LeftToes  -5.63919e-011 3.32596e-011 1.92487e-011
573
root  52.5629 38.454 14.6432 -178.269 -55.9601 174.697
RightUpLeg  -10.3589 -9.95427 -14.4482
RightLeg  34.3099 0.730946 0.300617
RightFoot  -11.5032 -0.0739892 2.45589
RightToes  -8.73116e-010 0 -3.6325e-017
Spine  12.9671 -1.42249 -2.91955
Spine1  5.46349 -2.26762 0.58532
HEad  -7.08278 4.97517 -12.7989
LeftShoulder1  -0.0533243 3.64253 -32.9353
LeftArm  -6.38966 5.37274 -34.6308
LeftForeArm  61.9801 -78.9344 -73.8103
LeftHand  0.00545938 -1.19837 0.0183827
RightShoulder  -0.813769 -5.93955 26.8446
RightArm  -6.08599 -21.1939 23.4612
RightForeArm  126.621 67.8301 150.854
RightHand  -0.510384 8.64907 -4.59531
LeftUpLeg  -6.50038 13.2479 -5.92171
LeftLeg  20.7812 3.51366 1.22835
LeftFoot  -12.9007 0.145364 4.98563
LeftToes  -5.63919e-011 3.32596e-011 1.92487e-011
574
root  51.3335 38.6924 14.5618 -178.742 -59.4255 175.618
RightUpLeg  -13.9858 -13.0879 -10.4517
RightLeg  33.1108 -2.11538 -1.71722
RightFoot  -10.9514 -0.0805613 1.72281
RightToes  -8.73116e-010 0 -3.6325e-017
Spine  11.8719 -1.88573 -2.6741
Spine1  6.69256 -2.88771 1.64586
HEad  -6.87614 3.0989 -12.0098
LeftShoulder1  -0.0303311 3.58261 -32.4925
LeftArm  -8.2259 5.44135 -35.5511
LeftForeArm  63.0564 -78.9847 -74.0835
LeftHand  0.018599 -1.19205 -0.216003
RightShoulder  -0.775434 -5.83997 26.5624
RightArm  -7.02722 -19.9812 24.7618
RightForeArm  125.764 68.0966 150.378
RightHand  -0.556656 8.07919 -5.16155
LeftUpLeg  -3.20824 8.40707 -5.94551
LeftLeg  17.2297 5.06645 0.614002
LeftFoot  -12.7036 0.143114 5.60556
LeftToes  -5.63919e-011 3.32596e-011 1.92487e-011
575
root  50.1161 38.8367 14.3933 -179.703 -61.4876 176.339
RightUpLeg  -16.8268 -14.7027 -6.49693
RightLeg  29.3593 -3.07101 -2.11067
RightFoot  -10.6355 -0.0853564 2.13692
RightToes  -8.73116e-010 0 -3.6325e-017
Spine  12.1047 -1.77406 -2.71373
Spine1  6.56642 -2.85311 2.26004
HEad  -6.12268 1.53263 -11.0478
LeftShoulder1  -0.035354 3.59648 -32.063
LeftArm  -9.47529 6.19856 -35.8476
LeftForeArm  67.0335 -79.1753 -77.4798
LeftHand  0.0800737 -1.29032 -1.27418
RightShoulder  -0.791905 -5.89342 26.5153
RightArm  -8.21154 -19.3548 25.4568
RightForeArm  124.435 68.3898 149.796
RightHand  -0.385266 6.60175 -4.01995
LeftUpLeg  0.760013 6.06717 -5.97009
LeftLeg  13.8516 5.66966 0.00739655
LeftFoot  -12.7205 0.154403 6.45596
LeftToes  -5.63919e-011 3.32596e-011 1.92487e-011
576
root  48.8444 38.8508 14.1569 -179.743 -63.5433 176.145
RightUpLeg  -19.1268 -15.5205 -3.16891
RightLeg  23.6695 -2.31626 -1.39242
RightFoot  -10.1719 -0.0929756 2.36094
RightToes  -8.73116e-010 0 -3.6325e-017
Spine  11.6691 -1.53332 -3.74398
Spine1  6.95424 -2.91478 3.43114
HEad  -5.72828 -0.250176 -10.2244
LeftShoulder1  -0.006319 3.52033 -31.9218
LeftArm  -10.4221 6.28266 -35.8785
LeftForeArm  67.8702 -79.2049 -78.6739
LeftHand  0.0396615 -0.908522 -0.639498
RightShoulder  -0.774302 -5.84682 26.4149
RightArm  -10.1799 -18.8832 25.9682
RightForeArm  120.835 68.9151 148.574
RightHand  -0.17271 4.95986 -2.2685
LeftUpLeg  4.52152 5.20857 -6.46968
LeftLeg  11.0001 5.00508 -0.306174
LeftFoot  -13.1092 0.184007 6.81032
LeftToes  -5.63919e-011 3.32596e-011 1.92487e-011
577
root  47.4893 38.7079 13.9505 -178.423 -66.7545 174.383
RightUpLeg  -20.5645 -16.697 -1.3438
RightLeg  16.7604 -1.71266 -0.448102
RightFoot  -10.0925 -0.0978341 2.68183
RightToes  -8.73116e-010 0 -3.6325e-017
Spine  11.6183 -1.98437 -4.54846
Spine1  6.7535 -3.45206 3.64128
HEad  -5.04362 -2.14522 -9.48334
LeftShoulder1  0.0385506 3.40022 -31.1746
LeftArm  -11.0665 6.35277 -36.1021
LeftForeArm  69.8066 -79.2712 -80.5762
LeftHand  -0.00913204 -0.678733 0.238434
RightShoulder  -0.768612 -5.84123 26.248
RightArm  -11.3505 -19.0806 26.8824
RightForeArm  115.545 69.129 147.613
RightHand  -0.170652 4.95267 -2.20644
LeftUpLeg  8.10124 4.85128 -7.51358
LeftLeg  9.04406 2.58303 -0.272796
LeftFoot  -14.0555 0.251493 7.03836
LeftToes  -5.63919e-011 3.32596e-011 1.92487e-011
578
root  46.0648 38.4806 13.7007 -176.327 -69.7885 171.736
RightUpLeg  -20.7321 -13.0167 -2.13186
RightLeg  9.05596 -4.62425 1.07758
RightFoot  -9.93777 -0.111102 3.57951
RightToes  -8.73116e-010 0 -3.6325e-017
Spine  11.4211 -2.40346 -5.05309
Spine1  6.89974 -3.83209 3.38981
HEad  -4.50839 -4.17344 -8.75344
LeftShoulder1  0.0783615 3.29172 -30.8622
LeftArm  -11.1863 5.72664 -35.8896
LeftForeArm  71.6779 -79.3282 -82.1859
LeftHand  -0.00661011 -1.07946 0.231222
RightShoulder  -0.759607 -5.815 26.2175
RightArm  -11.6568 -19.3774 27.5038
RightForeArm  117.183 68.3229 149.081
RightHand  -0.107961 3.01454 -1.73227
LeftUpLeg  11.681 5.01075 -8.17033
LeftLeg  7.78443 -0.36296 -0.484341
LeftFoot  -15.2428 0.355387 7.69284
LeftToes  -5.63919e-011 3.32596e-011 1.92487e-011
